<svg xmlns="http://www.w3.org/2000/svg" width="2345" height="320" viewBox="0 0 2345 320" fill="none"><g clip-path="url(#clip0_1512_257)"><mask id="mask0_1512_257" style="mask-type:luminance" maskUnits="userSpaceOnUse" x="0" y="0" width="2345" height="320"><path d="M2345 0H0V320H2345V0Z" fill="white"></path></mask><g mask="url(#mask0_1512_257)"><path d="M536.996 1469C840.75 1469 1086.99 1187.16 1086.99 839.5C1086.99 491.837 840.75 210 536.996 210C233.242 210 -13 491.837 -13 839.5C-13 1187.16 233.242 1469 536.996 1469Z" fill="url(#paint0_radial_1512_257)"></path><g opacity="0.5"><path d="M1798.09 0H1605V320H1798.09V0Z" fill="url(#paint1_linear_1512_257)"></path><path d="M1797.65 0.5H1605.44V319.5H1797.65V0.5Z" stroke="url(#paint2_linear_1512_257)" stroke-opacity="0.5"></path></g><g opacity="0.5"><path d="M506.852 0H313.764V320H506.852V0Z" fill="url(#paint3_linear_1512_257)"></path><path d="M506.414 0.5H314.199V319.5H506.414V0.5Z" stroke="url(#paint4_linear_1512_257)" stroke-opacity="0.5"></path></g><g opacity="0.5"><path d="M1991.18 0H1798.09V320H1991.18V0Z" fill="url(#paint5_linear_1512_257)"></path><path d="M1990.74 0.5H1798.53V319.5H1990.74V0.5Z" stroke="url(#paint6_linear_1512_257)" stroke-opacity="0.5"></path></g><g opacity="0.5"><path d="M699.94 0H506.852V320H699.94V0Z" fill="url(#paint7_linear_1512_257)"></path><path d="M699.502 0.5H507.287V319.5H699.502V0.5Z" stroke="url(#paint8_linear_1512_257)" stroke-opacity="0.5"></path></g><path d="M634.414 189C932.137 189 1173.49 -87.2403 1173.49 -428C1173.49 -768.76 932.137 -1045 634.414 -1045C336.692 -1045 95.3398 -768.76 95.3398 -428C95.3398 -87.2403 336.692 189 634.414 189Z" fill="url(#paint9_radial_1512_257)"></path></g></g><defs><radialGradient id="paint0_radial_1512_257" cx="0" cy="0" r="1" gradientUnits="userSpaceOnUse" gradientTransform="translate(536.996 839.5) rotate(90.0462) scale(606.558 529.951)"><stop stop-color="#A5CDFF"></stop><stop offset="1" stop-color="white" stop-opacity="0"></stop></radialGradient><linearGradient id="paint1_linear_1512_257" x1="1701.54" y1="0" x2="1701.54" y2="320" gradientUnits="userSpaceOnUse"><stop stop-color="white" stop-opacity="0.32"></stop><stop offset="1" stop-color="white" stop-opacity="0"></stop></linearGradient><linearGradient id="paint2_linear_1512_257" x1="1701.54" y1="-1.34297e-08" x2="1701.54" y2="320" gradientUnits="userSpaceOnUse"><stop stop-color="white" stop-opacity="0.45"></stop><stop offset="1" stop-color="white" stop-opacity="0"></stop></linearGradient><linearGradient id="paint3_linear_1512_257" x1="410.308" y1="0" x2="410.308" y2="320" gradientUnits="userSpaceOnUse"><stop stop-color="white" stop-opacity="0"></stop><stop offset="0.523958" stop-color="white" stop-opacity="0.15"></stop><stop offset="1" stop-color="white" stop-opacity="0"></stop></linearGradient><linearGradient id="paint4_linear_1512_257" x1="410.307" y1="-1.34297e-08" x2="410.307" y2="320" gradientUnits="userSpaceOnUse"><stop stop-color="white" stop-opacity="0.45"></stop><stop offset="1" stop-color="white" stop-opacity="0"></stop></linearGradient><linearGradient id="paint5_linear_1512_257" x1="1894.63" y1="0" x2="1894.63" y2="320" gradientUnits="userSpaceOnUse"><stop stop-color="white" stop-opacity="0.32"></stop><stop offset="1" stop-color="white" stop-opacity="0"></stop></linearGradient><linearGradient id="paint6_linear_1512_257" x1="1894.63" y1="-1.34297e-08" x2="1894.63" y2="320" gradientUnits="userSpaceOnUse"><stop stop-color="white" stop-opacity="0.45"></stop><stop offset="1" stop-color="white" stop-opacity="0"></stop></linearGradient><linearGradient id="paint7_linear_1512_257" x1="603.396" y1="0" x2="603.396" y2="320" gradientUnits="userSpaceOnUse"><stop stop-color="white" stop-opacity="0"></stop><stop offset="0.523958" stop-color="white" stop-opacity="0.15"></stop><stop offset="1" stop-color="white" stop-opacity="0"></stop></linearGradient><linearGradient id="paint8_linear_1512_257" x1="603.394" y1="-1.34297e-08" x2="603.394" y2="320" gradientUnits="userSpaceOnUse"><stop stop-color="white" stop-opacity="0.45"></stop><stop offset="1" stop-color="white" stop-opacity="0"></stop></linearGradient><radialGradient id="paint9_radial_1512_257" cx="0" cy="0" r="1" gradientUnits="userSpaceOnUse" gradientTransform="translate(634.414 -428) rotate(90.0462) scale(594.514 519.429)"><stop stop-color="#3300FF"></stop><stop offset="1" stop-color="#FCFBFF" stop-opacity="0"></stop></radialGradient><clipPath id="clip0_1512_257"><rect width="2345" height="320" fill="white"></rect></clipPath></defs></svg>